<svg xmlns="http://www.w3.org/2000/svg">
	<symbol viewBox="0 0 46 46" id="picture" width="50" height="50">
		    <path d="M42 34H4a4 4 0 0 1-4-4V4a4 4 0 0 1 4-4h38a4 4 0 0 1 4 4v26a4 4 0 0 1-4 4Zm2-30a2 2 0 0 0-2-2H4a2 2 0 0 0-2 2v26a2 2 0 0 0 2 2h38a2 2 0 0 0 2-2Zm-3.666 23.715L34 21.381 30.381 25l3.334 3.334a.977.977 0 0 1-1.381 1.381L18 15.381 5.666 27.715a.977.977 0 0 1-1.381-1.381l12.905-12.9a.9.9 0 0 1 .095-.144.918.918 0 0 1 1.525.144L29 23.619l4.19-4.19a1.023 1.023 0 0 1 .1-.144 1.05 1.05 0 0 1 1.43 0 1.023 1.023 0 0 1 .1.144l6.9 6.905a.977.977 0 0 1-1.381 1.381ZM28 12a4 4 0 0 1-1.641-7.64 3.987 3.987 0 0 0 5.282 5.281A4 4 0 0 1 28 12Z" fill-rule="evenodd"/>
	</symbol>

	<symbol viewBox="-143 145 512 512" id="linkedin">
		<path d="M113 145c-141.4 0-256 114.6-256 256s114.6 256 256 256 256-114.6 256-256-114.6-256-256-256zM41.4 508.1H-8.5V348.4h49.9v159.7zM15.1 328.4h-.4c-18.1 0-29.8-12.2-29.8-27.7 0-15.8 12.1-27.7 30.5-27.7s29.7 11.9 30.1 27.7c.1 15.4-11.6 27.7-30.4 27.7zM241 508.1h-56.6v-82.6c0-21.6-8.8-36.4-28.3-36.4-14.9 0-23.2 10-27 19.6-1.4 3.4-1.2 8.2-1.2 13.1v86.3H71.8s.7-146.4 0-159.7h56.1v25.1c3.3-11 21.2-26.6 49.8-26.6 35.5 0 63.3 23 63.3 72.4v88.8z"/>
	</symbol>

	<symbol viewBox="-143 145 512 512" id="facebook">
		<path d="M113 145c-141.4 0-256 114.6-256 256s114.6 256 256 256 256-114.6 256-256-114.6-256-256-256zm56.5 212.6-2.9 38.3h-39.3v133H77.7v-133H51.2v-38.3h26.5v-25.7c0-11.3.3-28.8 8.5-39.7 8.7-11.5 20.6-19.3 41.1-19.3 33.4 0 47.4 4.8 47.4 4.8l-6.6 39.2s-11-3.2-21.3-3.2-19.5 3.7-19.5 14v29.9h42.2z"/>
	</symbol>
</svg>