<svg  viewBox="0 -6 46 46" id="picture" xmlns="http://www.w3.org/2000/svg"><path d="M42 34H4a4 4 0 0 1-4-4V4a4 4 0 0 1 4-4h38a4 4 0 0 1 4 4v26a4 4 0 0 1-4 4Zm2-30a2 2 0 0 0-2-2H4a2 2 0 0 0-2 2v26a2 2 0 0 0 2 2h38a2 2 0 0 0 2-2Zm-3.666 23.715L34 21.381 30.381 25l3.334 3.334a.977.977 0 0 1-1.381 1.381L18 15.381 5.666 27.715a.977.977 0 0 1-1.381-1.381l12.905-12.9a.9.9 0 0 1 .095-.144.918.918 0 0 1 1.525.144L29 23.619l4.19-4.19a1.023 1.023 0 0 1 .1-.144 1.05 1.05 0 0 1 1.43 0 1.023 1.023 0 0 1 .1.144l6.9 6.905a.977.977 0 0 1-1.381 1.381ZM28 12a4 4 0 0 1-1.641-7.64 3.987 3.987 0 0 0 5.282 5.281A4 4 0 0 1 28 12Z" fill-rule="evenodd"/></svg>